<svg id="Слой_1" data-name="Слой 1" xmlns="http://www.w3.org/2000/svg" viewBox="0 0 360 360"><defs><style>.cls-1{fill:#050625;}</style></defs><path class="cls-1" d="M121.87,222.07a72.51,72.51,0,0,1-5-10.24,14.81,14.81,0,0,1-7.39,5.1c-3,.59-28.17,2.88-28.39,2.88-4.44.34-9,1.05-12.08,5.76a74.18,74.18,0,0,0-4.5,9.28,141.51,141.51,0,0,1-8.39,16.86s-8.75,12.94-9.81,14.3-.53,2.76,0,4.46l.46,1.82a19.22,19.22,0,0,1-2,6.59v.53l6.71,8.7.43.18.41-.18,8.35-10.59v-.62L58,273.16l-1.83-2.26.43-1.14c2.21-.34,3.48-.84,3.73-1.4a13,13,0,0,0,.37-4.3,22.38,22.38,0,0,1,1.86-10.92,113.91,113.91,0,0,1,10-12.38c1.06-1.14,2-2.26,3.39-3.84,2.61-3.25,3.85-3.09,5.34-3.31a70.54,70.54,0,0,1,18.64,2.88c5.65,2,21.55,3.62,35.09,1.92C133.68,236.18,127.22,230.24,121.87,222.07Z"/><path class="cls-1" d="M260.64,259.82c-7.73-5.07-17.2-10.95-21.55-12.16-3.57-1-9.32.34-14.91,2a20.58,20.58,0,0,1,6.21,9.28,49.08,49.08,0,0,0,2.3,4.93,61.59,61.59,0,0,0,6.21,8.75c3.11,3.75,5.56,6.72,5.72,11s-4.35,17.76-8.51,25.37c-3.64,6.66-8.39,14.08-11.25,18.57-1,1.58-1.77,2.79-2.14,3.41a16.42,16.42,0,0,0-1.37,3.09,8.5,8.5,0,0,1-1.74,3.44c-1.46,1.36-4,3.09-4.5,3.65l-2.55.37h-.31l-6.95,7.55v.56l.46.31h14.79l.43-.25,2.8-4.33v-1.58l1.24-1.49h3.1l.38-.21a164,164,0,0,0,10.62-21.67c1.37-3.09,2.42-5.57,3.1-6.68a180.24,180.24,0,0,1,19.26-28.19,41.43,41.43,0,0,0,5.22-7.27c.37-1.27-.47-2.48-1.65-4.12A21.64,21.64,0,0,1,260.64,259.82Z"/><path class="cls-1" d="M308.22,309.64c-2-10.67-2.85-21.1-3.51-28.68A59.4,59.4,0,0,0,303.13,269a29.54,29.54,0,0,0-6.77-6.19c-4.6-3.62-10.31-8.1-11.06-11.11-2.54-10.3-1.39-20.73-.37-29.92a87.69,87.69,0,0,0,.84-15.19,55.46,55.46,0,0,1-5.5-4.77,19.45,19.45,0,0,0,5.37,2.54,20.24,20.24,0,0,0,6.22,1,16.11,16.11,0,0,0,4.72-.65,6.18,6.18,0,0,0,2.33-1,6.32,6.32,0,0,0,1.77-1.8l-.31-.68A33.37,33.37,0,0,1,289,192.05a32.65,32.65,0,0,0-7.67-7,28.23,28.23,0,0,0-7-2l-1.68-.34a13.79,13.79,0,0,1-2.11-.93c-4.16-2-13.91-6.59-23.17-6.47a123.87,123.87,0,0,0-23,3.1,65.64,65.64,0,0,1-16.28,2,126.25,126.25,0,0,0-13.48-.28c-8.57,0-14.81.21-20.9-5.08-10.4-9-6.86-22.53-2.76-38.18a102.22,102.22,0,0,0,4.63-28.57,19.3,19.3,0,0,1-6.62-3.09,31.44,31.44,0,0,0,7.89,1.3,30.21,30.21,0,0,0,9.91-1.27,15.16,15.16,0,0,0,10-13.34c0-1.27-.65-1.58-1-1.67a46.38,46.38,0,0,0-12.42,1.33l-5.25.93a92.32,92.32,0,0,0,20.78-10.18,15.15,15.15,0,0,1,3.6-2h1.18c4.07.28,14.85,1,17.86-7.68l-.4-1.14-1.18.22-.25.27a12.42,12.42,0,0,1-11.37,4.58l2-1.73a53.93,53.93,0,0,0,9.66-10c2-2.54,8.79-12.38,10.53-31.57V27.83c.53-4.4.68-12.66-3.79-18l-1.4-.25-.46,1.3.46,1.08a19,19,0,0,1,2.05,11.58,3.07,3.07,0,0,1-.87,1.76l-.37-.34-.37-.62a12.46,12.46,0,0,0-7.27-5.91l-1.18.5.34,1.36a19.24,19.24,0,0,1,7.67,15.47A39.51,39.51,0,0,1,219,57l-1.43,1.14a3.76,3.76,0,0,1-2.23-1.08c-1.9-1.48-7.33-11.08-2.36-23l-.5-1.46-1.49.65a24.15,24.15,0,0,0,1,27.24l1,1.67a4.58,4.58,0,0,1,.37,2.87c-.37,1.49-9.32,8.76-12.42,10.22a8.64,8.64,0,0,1-6,.71c-2.58-1-15.53-10.71-10.44-30.64L184,44l-1.24.68c-4.88,12.94-2.89,23.86,6,32.5l.69.74.34,1.51-1.28,1.33a27.9,27.9,0,0,1-14.93,3.5,8.67,8.67,0,0,1-3.95-3.09A22.18,22.18,0,0,1,165.36,63l-.84-1.17-1.28.8A24.22,24.22,0,0,0,166,84.3L167,86c-.9,1-13.2,1.55-14.91.5-13.2-8-19.53-26.74-19.1-35.28.75-15.47,4.94-27.2,12.43-34.87V15.05h-1.5c-9.65,7.61-11.92,16.8-13.44,25.56A3.7,3.7,0,0,1,129,43.27l-1.93-.22s-6.46-3.8-4.75-15.28l-.68-1.12-1.09.62a16.29,16.29,0,0,0,5,18.85l.22.21a7.42,7.42,0,0,1,2,3.25A58.1,58.1,0,0,1,129.17,61l-1.49,2-1.49-.34a11.72,11.72,0,0,1-3.34-3.46,11.55,11.55,0,0,1-1.66-4.52l-1-.81-.78,1.4a14.19,14.19,0,0,0,7.92,11.11l.62.37A10.14,10.14,0,0,1,131,70.16c2.32,4.43,4.53,8,5.74,9.9l.65,1.09a3,3,0,0,1,.6,1.24,3.11,3.11,0,0,1,0,1.39l-1.11.71c-1.87.34-6.78,1.27-12.43-5.29L123.24,79l-.31,1.27c3.73,8.14,11.27,8.17,15.28,8.2a10.47,10.47,0,0,1,2.3.34,9,9,0,0,1,5.06,3.09,19.07,19.07,0,0,0-4.94.44c-1.11.34-1.58,1.3-2.08,2.19a4.19,4.19,0,0,1-2.61,2.63c-3.1,1-19,4.92-20.62,5.3-2.17.49-.9,11-.87,11a11.65,11.65,0,0,0,7.42,4.8,35.48,35.48,0,0,1,13.76,3.09l1.15.5.87.37a37.66,37.66,0,0,0,4.47,1.58c1.9.43,4.63.9,4.63.9a40.23,40.23,0,0,1-6.21,0l-2.24-.28c1.53,9.53-6,20.85-14,31.72-8.36,11.35-16.93,28.59-10.38,46.1.87,2.45,1.84,4.61,2.8,6.69a70.7,70.7,0,0,0,7.89,14.17c2.48,2.85,7.79,8.51,10.37,11.23,0-2.13-.87-7.86-.87-7.86l4,13c.37.9.71,1.86,1.08,2.85.78,2.16,1.62,4.39,2.58,6.47a65,65,0,0,0,4.66,8.2,20.21,20.21,0,0,1,3.42,7.55c.4,2.38.28,13.18.25,17.82v1.92a18.93,18.93,0,0,0,1.52,5,22.91,22.91,0,0,1,1.71,5.67V325.7a11.09,11.09,0,0,1-1.22,3.75l-.43,1.21a44.14,44.14,0,0,1-.28,5.32,8.44,8.44,0,0,1-1.27,3.28l-3.42,1.39-.25.19-5.81,8.48v.55l.47.28H156l.53-.46.49-6.19v-.37l-.9-1.18,1.25-1.92c1.3,0,4.28,0,5-.77s.46-2.11,0-6.19a52.46,52.46,0,0,1-.47-5.23v-32a20.3,20.3,0,0,1,.78-3.62,26.58,26.58,0,0,0,1.08-6.75c0-2.87,1.12-11.54,1.53-18.56a38.73,38.73,0,0,1,2.54-11.73c1.43-3.87,2.52-7.64,5.93-8.26a45.27,45.27,0,0,1,13,1.79,86.67,86.67,0,0,0,16.33,2.51,86.88,86.88,0,0,0,10.44-.93c3.42-.8,7.33-2.17,8.6-2.57,5.38-1.79,14-5.78,19.51-4,3.57,1.18,15.28,10.86,23.14,17.61a111.74,111.74,0,0,1,10.21,7.52c5.5,4.61,14.69,12.38,17,17.14,4.26,9,6.22,18.57,9.32,33.39a72.16,72.16,0,0,1,1.27,13.28,5.1,5.1,0,0,0,1.09,3.09l.87,1.77c.19,1,0,3.43-.65,3.83l-3.79,2.85v.18l-2.58,5.3v.49l.44.25h12.67l.53-.43,1.18-6.66v-.28l-.75-1.82.44-2.6a10.73,10.73,0,0,0,3.1-3.53v-.4A137.17,137.17,0,0,1,308.22,309.64ZM148.46,103.24a6.49,6.49,0,0,1-3.32-.46,4.75,4.75,0,0,1,1.23-1.77,5,5,0,0,1,1.87-1.05c1.68-.28,3.11,1.64,3.3,2A5.49,5.49,0,0,1,148.46,103.24Z"/></svg>