<svg width="329" height="428" viewBox="0 0 329 428" fill="none" xmlns="http://www.w3.org/2000/svg">
<path d="M105.505 232.335C103.556 229.06 101.874 225.635 100.474 222.092C98.5974 224.513 96.0154 226.297 93.0817 227.198C90.1312 227.786 64.9119 230.076 64.6945 230.076C60.2532 230.416 55.6565 231.128 52.6128 235.832C50.8976 238.819 49.3929 241.921 48.1094 245.115C45.6871 250.914 42.8859 256.547 39.7237 261.98C39.7237 261.98 30.9653 274.915 29.9093 276.277C28.8533 277.638 29.3813 279.031 29.9093 280.733L30.3752 282.559C30.118 284.854 29.4555 287.085 28.4185 289.15V289.676L35.1271 298.372L35.5619 298.557L35.9656 298.372L44.3203 287.788V287.169L41.6182 283.425L39.7858 281.166L40.2206 280.021C42.4257 279.681 43.6991 279.186 43.9476 278.629C44.3122 277.226 44.4382 275.772 44.3203 274.327C44.0151 270.588 44.6558 266.832 46.1838 263.404C49.2128 259.051 52.5442 254.915 56.1535 251.026C57.2095 249.881 58.2033 248.767 59.5388 247.189C62.1477 243.939 63.39 244.094 64.8808 243.877C71.194 243.999 77.462 244.967 83.5158 246.755C89.1683 248.798 105.07 250.376 118.612 248.674C117.307 246.446 110.847 240.504 105.505 232.335Z" fill="#050625"/>
<path d="M244.273 270.088C236.54 265.013 227.067 259.133 222.719 257.926C219.147 256.905 213.401 258.267 207.811 259.907C210.701 262.371 212.851 265.584 214.022 269.19C214.696 270.872 215.463 272.514 216.321 274.111C218.128 277.207 220.207 280.137 222.532 282.868C225.638 286.613 228.092 289.583 228.247 293.915C228.402 298.248 223.899 311.678 219.737 319.29C216.103 325.944 211.351 333.37 208.494 337.857C207.469 339.436 206.724 340.642 206.351 341.261C205.786 342.241 205.328 343.279 204.984 344.356C204.673 345.617 204.079 346.792 203.245 347.791C201.785 349.152 199.27 350.885 198.742 351.442L196.195 351.814H195.884L188.927 359.364V359.921L189.393 360.231H204.177L204.612 359.983L207.407 355.651V354.072L208.649 352.587C209.146 352.587 210.388 352.587 211.755 352.587L212.128 352.371C216.199 345.42 219.749 338.18 222.75 330.709C224.116 327.615 225.172 325.139 225.855 324.025C231.365 314.042 237.812 304.603 245.112 295.834C247.109 293.605 248.859 291.167 250.329 288.562C250.702 287.293 249.863 286.086 248.683 284.446C245.542 280.337 243.978 275.245 244.273 270.088Z" fill="#050625"/>
<path d="M164.516 428L162.559 426.638C162.404 426.298 147.868 391.547 62.1167 391.547C20.9024 391.547 0.000246032 370.566 0.000246032 329.162V2.10449C-0.00815553 1.55984 0.198908 1.03377 0.576674 0.64001C0.954441 0.246249 1.47256 0.0164304 2.01903 0.000234477H326.888C327.166 -0.00393899 327.443 0.0476385 327.701 0.15191C327.959 0.256181 328.194 0.411023 328.391 0.607259C328.587 0.803495 328.743 1.03713 328.848 1.29432C328.952 1.5515 329.004 1.827 329 2.10449V329.162C329 370.566 308.098 391.547 266.883 391.547C180.728 391.547 166.627 426.298 166.472 426.638L164.484 428M8.7276 10.0883V325.727C8.7276 363.758 27.1451 379.045 64.974 379.045C136.408 379.045 158.552 398.169 164.36 407.391C170.261 398.107 192.499 379.045 263.746 379.045C301.606 379.045 319.993 363.758 319.993 325.727V10.0883H8.7276Z" fill="#050625"/>
<path d="M291.854 319.909C289.898 309.233 288.997 298.805 288.345 291.223C288.224 287.199 287.693 283.196 286.761 279.279C284.84 276.877 282.556 274.789 279.99 273.09C275.393 269.469 269.679 264.982 268.933 261.98C266.386 251.676 267.536 241.247 268.561 232.057C269.28 227.026 269.561 221.942 269.399 216.863C267.464 215.395 265.628 213.803 263.902 212.097C265.552 213.212 267.364 214.068 269.275 214.634C271.277 215.307 273.373 215.662 275.487 215.687C277.084 215.702 278.674 215.483 280.207 215.037C281.044 214.882 281.839 214.557 282.544 214.084C283.249 213.61 283.849 212.997 284.307 212.283L283.996 211.602C279.562 209.387 275.679 206.216 272.629 202.318C270.466 199.583 267.876 197.211 264.958 195.294C262.733 194.34 260.395 193.674 258.001 193.313L256.324 192.973C256.044 192.973 255.237 192.509 254.212 192.045C250.05 190.064 240.298 185.453 231.042 185.577C223.291 185.889 215.585 186.925 208.028 188.672C202.707 190.001 197.239 190.656 191.754 190.621C187.269 190.293 182.769 190.2 178.274 190.343C169.702 190.343 163.46 190.559 157.372 185.268C146.968 176.263 150.508 162.74 154.608 147.082C157.503 137.828 159.061 128.211 159.236 118.519C156.854 117.913 154.61 116.863 152.62 115.425C155.183 116.193 157.834 116.63 160.509 116.725C163.859 116.854 167.208 116.425 170.417 115.456C173.216 114.455 175.658 112.658 177.442 110.287C179.225 107.916 180.27 105.076 180.448 102.119C180.448 100.85 179.796 100.54 179.455 100.448C175.272 100.33 171.093 100.778 167.031 101.778L161.782 102.707C169.112 100.2 176.093 96.7788 182.56 92.5257C183.665 91.6962 184.877 91.0195 186.163 90.5143H187.343C191.412 90.7928 202.189 91.5664 205.202 82.8399L204.798 81.6949L203.618 81.9116L203.369 82.1901C202.034 83.8679 200.285 85.1719 198.292 85.9746C196.3 86.7774 194.133 87.0514 192.002 86.7699L194.052 85.037C197.689 82.1211 200.936 78.7515 203.711 75.0108C205.761 72.4733 212.5 62.6328 214.24 43.447C214.24 42.5186 214.24 41.6212 214.24 40.7238C214.24 39.8264 214.24 38.929 214.24 38.0935C214.768 33.6993 214.923 25.437 210.451 20.0835L209.053 19.836L208.587 21.1356L209.053 22.2187C210.943 25.7651 211.66 29.8155 211.103 33.7921C211.013 34.4586 210.708 35.0778 210.233 35.556L209.861 35.2156L209.488 34.5967C207.934 31.7559 205.325 29.6343 202.22 28.6862L201.04 29.1813L201.382 30.5429C203.777 32.3525 205.717 34.6924 207.049 37.3778C208.38 40.0631 209.066 43.0203 209.053 46.0154C208.992 53.5778 206.761 60.9651 202.624 67.3055L201.195 68.4505C200.667 68.4505 200.015 68.2029 198.959 67.3674C197.065 65.8821 191.629 56.2891 196.599 44.3444L196.102 42.8899L194.611 43.5398C192.008 47.6503 190.708 52.4463 190.88 57.3034C191.052 62.1605 192.687 66.8536 195.574 70.7714L196.537 72.4424C196.968 73.3367 197.099 74.346 196.909 75.3203C196.537 76.8056 187.592 84.0777 184.486 85.5321C182.632 86.4933 180.489 86.7464 178.461 86.2439C175.883 85.2846 162.932 75.5369 168.025 55.6083L167.621 54.2777L166.379 54.9585C161.503 67.8935 163.491 78.8171 172.373 87.4507L173.057 88.1934L173.398 89.7097L172.125 91.0403C167.57 93.5717 162.395 94.7829 157.186 94.5371C155.595 93.9128 154.224 92.8368 153.241 91.4426C151.257 88.9011 149.849 85.9611 149.114 82.8253C148.38 79.6894 148.336 76.4322 148.986 73.2779L148.148 72.102L146.874 72.9066C145.613 76.4844 145.209 80.3064 145.695 84.0675C146.18 87.8285 147.541 91.4244 149.67 94.568L150.601 96.2391C149.701 97.2603 137.402 97.7863 135.694 96.7342C122.494 88.7194 116.158 69.9977 116.593 61.4569C117.338 45.9845 121.531 34.2563 129.016 26.582V25.3132H127.525C117.866 32.9257 115.599 42.1163 114.077 50.8738C114.045 51.3936 113.901 51.9005 113.654 52.3598C113.408 52.8191 113.065 53.2199 112.648 53.535L110.723 53.3184C110.723 53.3184 104.263 49.5122 105.971 38.0316L105.288 36.9176L104.201 37.5365C102.89 40.7985 102.671 44.3953 103.578 47.7911C104.484 51.1869 106.467 54.2001 109.232 56.382L109.449 56.5986C110.396 57.4867 111.093 58.6072 111.468 59.8478C112.293 63.6108 112.74 67.4462 112.804 71.2974L111.313 73.3089L109.822 72.9685C108.477 72.058 107.337 70.8776 106.476 69.5027C105.615 68.1279 105.051 66.589 104.822 64.9847L103.766 64.1801L102.989 65.5726C103.263 67.9391 104.133 70.1982 105.518 72.1403C106.902 74.0824 108.757 75.6446 110.909 76.6819L111.53 77.0532C112.811 77.9264 113.873 79.0803 114.636 80.4262C116.965 84.8513 119.171 88.41 120.382 90.3286L121.034 91.4117C121.325 91.7774 121.529 92.2039 121.632 92.6594C121.734 93.1149 121.731 93.5876 121.624 94.042L120.506 94.7537C118.643 95.0941 113.735 96.0225 108.083 89.4621L106.872 89.2146L106.561 90.4833C110.288 98.6218 117.835 98.6528 121.842 98.6837C122.618 98.7143 123.388 98.8285 124.14 99.0241C126.131 99.4533 127.916 100.545 129.202 102.119C127.544 102.046 125.884 102.191 124.264 102.552C123.146 102.892 122.68 103.852 122.183 104.749C121.978 105.356 121.636 105.909 121.184 106.365C120.732 106.821 120.181 107.168 119.574 107.379C116.469 108.369 100.536 112.3 98.9517 112.671C96.7776 113.166 98.051 123.625 98.082 123.718C99.8268 126.228 102.494 127.951 105.505 128.515C110.253 128.615 114.932 129.668 119.264 131.609L120.413 132.104L121.283 132.476C122.738 133.097 124.231 133.625 125.755 134.054C127.649 134.487 130.383 134.951 130.383 134.951C128.315 135.118 126.238 135.118 124.171 134.951L121.935 134.673C123.457 144.204 115.909 155.53 107.927 166.391C99.5728 177.748 91.0008 194.984 97.5541 212.499C98.4237 214.944 99.3865 217.11 100.349 219.183C102.426 224.193 105.073 228.948 108.238 233.356C110.723 236.203 116.034 241.866 118.612 244.589C118.612 242.454 117.742 236.729 117.742 236.729L121.717 249.757C122.09 250.654 122.432 251.614 122.804 252.604C123.581 254.77 124.419 256.998 125.382 259.071C126.731 261.915 128.288 264.656 130.041 267.272C131.688 269.528 132.851 272.098 133.457 274.822C133.861 277.205 133.737 288.005 133.706 292.647V294.565C133.979 296.308 134.491 298.005 135.228 299.609C136.043 301.414 136.618 303.318 136.936 305.272V335.97C136.76 337.28 136.35 338.548 135.725 339.714L135.29 340.921C135.29 341.137 135.29 344.634 135.01 346.243C134.823 347.414 134.389 348.532 133.737 349.524L130.32 350.916L130.072 351.102L124.264 359.581V360.138L124.73 360.416H139.669L140.197 359.952L140.694 353.763V353.392L139.793 352.216L141.036 350.297C142.34 350.297 145.322 350.297 146.067 349.524C146.812 348.75 146.533 347.419 146.067 343.335C145.85 341.447 145.601 339.497 145.601 338.105V334.206C145.601 325.974 145.601 308.831 145.601 306.077C145.748 304.849 146.008 303.637 146.378 302.456C147.03 300.264 147.395 297.996 147.465 295.71C147.465 292.832 148.583 284.168 148.986 277.143C149.225 273.127 150.084 269.171 151.533 265.415C152.962 261.547 154.049 257.772 157.465 257.153C161.857 257.12 166.231 257.724 170.448 258.948C175.8 260.301 181.271 261.14 186.784 261.454C190.278 261.353 193.763 261.043 197.22 260.526C200.636 259.721 204.55 258.36 205.823 257.957C211.196 256.163 219.861 252.171 225.328 253.996C228.899 255.172 240.608 264.858 248.466 271.604C252.009 273.92 255.421 276.43 258.684 279.124C264.181 283.735 273.375 291.502 275.704 296.267C279.959 305.241 281.916 314.834 285.021 329.657C285.854 334.034 286.28 338.478 286.295 342.932C286.304 344.055 286.686 345.144 287.382 346.027L288.251 347.791C288.438 348.781 288.251 351.226 287.599 351.628L283.81 354.475V354.66L281.232 359.952V360.447L281.667 360.695H294.339L294.867 360.261L296.047 353.608V353.33L295.302 351.504L295.736 348.905C297.02 347.971 298.081 346.767 298.842 345.377V344.975C295.723 336.859 293.383 328.466 291.854 319.909ZM132.091 113.506C130.961 113.645 129.815 113.484 128.768 113.042C129.038 112.37 129.458 111.767 129.996 111.279C130.534 110.791 131.176 110.431 131.873 110.226C133.551 109.948 134.979 111.866 135.166 112.207C134.301 112.947 133.226 113.401 132.091 113.506Z" fill="#050625"/>
</svg>
