# 3ds Max Wavefront OBJ Exporter v0.97b - (c)2007 guruware
# File Created: 20.05.2017 13:37:52

mtllib arsenal.mtl

#
# object ?????
#

v  477.188202 598.421326 157.399551
v  575.876465 571.659241 157.476242
v  514.411560 506.888733 157.476242
v  449.122223 568.846008 157.399551
v  526.817200 583.335632 172.243668
v  482.767914 536.917419 172.243668
v  78.714073 976.559204 157.399551
v  41.818581 1078.461426 157.476242
v  59.049709 1027.230591 172.243668
v  50.648193 946.983826 157.399551
v  -19.646362 1013.690918 157.476242
v  15.000415 980.812317 172.243668
v  272.865082 858.698059 157.681427
v  372.408997 764.234375 157.758133
v  332.440277 722.116150 157.758133
v  232.896393 816.579834 157.681427
v  322.657471 811.446838 172.525543
v  282.688782 769.328613 172.525543
# 18 vertices

vn 0.000618 -0.000587 -1.000000
vn -0.221094 0.209810 0.952417
vn 0.232586 -0.220716 0.947200
vn 0.001088 0.001147 -0.999999
vn -0.370768 -0.390708 0.842543
vn 0.346997 0.365659 0.863647
vn -0.000574 0.000545 -1.000000
vn 0.209743 -0.199038 0.957284
vn -0.214261 0.203326 0.955380
vn 0.000405 -0.000385 -1.000000
vn -0.153317 0.145493 0.977408
vn 0.152680 -0.144888 0.977597
vn 0.688355 0.725374 -0.000000
# 13 vertex normals

vt 0.456659 0.877371 0.000502
vt 0.999498 0.999501 0.005664
vt 0.000499 0.999501 0.005664
vt 0.000500 0.877371 0.000502
vt 0.283561 0.940308 0.999500
vt 0.543341 0.877371 0.000502
vt 0.999500 0.877371 0.000502
vt 0.999500 0.940308 0.999500
vt 0.000502 0.999501 0.005664
vt 0.999501 0.999501 0.005664
vt 0.456661 0.131991 0.000500
vt 0.999501 0.000499 0.005662
vt 0.283559 0.065309 0.999498
vt 0.543339 0.131991 0.000500
vt 0.000500 0.000499 0.005662
vt 0.000501 0.131991 0.000500
vt 0.000502 0.000499 0.005662
vt 0.999499 0.065309 0.999498
vt 0.999499 0.131991 0.000500
vt 0.999498 0.000499 0.005662
vt 1.320080 0.552048 0.393552
vt -0.320080 0.552048 0.394652
vt -0.320080 0.447952 0.394652
vt 1.320080 0.447952 0.393552
vt 0.500337 0.552048 0.606448
vt -0.320080 0.552048 0.393552
vt -0.320080 0.447952 0.393552
vt 0.500336 0.447952 0.606448
vt 1.320080 0.552048 0.394652
vt 1.320080 0.447952 0.394652
vt -0.320080 0.394652 0.552048
vt 1.320080 0.393552 0.552048
vt 0.499663 0.606448 0.552048
# 33 texture coords

g ?????
usemtl ?????_2
s off
f 1/1/1 2/2/1 3/3/1 4/4/1 
f 5/5/2 1/6/2 4/7/2 6/8/2 
f 2/9/3 5/5/3 6/8/3 3/10/3 
f 7/11/4 8/12/4 2/2/4 1/1/4 
f 9/13/5 7/14/5 1/6/5 5/5/5 
f 8/15/6 9/13/6 5/5/6 2/9/6 
f 10/16/7 11/17/7 8/12/7 7/11/7 
f 12/18/8 10/19/8 7/14/8 9/13/8 
f 11/20/9 12/18/9 9/13/9 8/15/9 
s 2305
f 13/21/10 14/22/10 15/23/10 16/24/10 
s 4612
f 17/25/11 13/26/11 16/27/11 18/28/11 
s 9218
f 14/29/12 17/25/12 18/28/12 15/30/12 
s 2147483648
f 14/31/13 13/32/13 17/33/13 
# 12 polygons - 1 triangles

#
# object Rectangle01
#

v  243.456619 825.436035 101.872574
v  235.272491 816.811768 101.872574
v  235.272491 816.811768 157.652100
v  243.456619 825.436035 157.652100
v  331.998016 725.022644 101.872574
v  331.998016 725.022644 157.652100
v  340.182098 733.646973 101.872574
v  340.182098 733.646973 157.652100
v  481.198578 599.827332 101.872574
v  481.198578 599.827332 157.652100
v  450.553131 567.533691 101.872574
v  450.553131 567.533691 157.652100
v  512.180725 509.051270 101.872574
v  512.180725 509.051270 157.652100
v  572.936523 573.971130 101.872574
v  572.936523 573.971130 157.652100
v  44.353542 1075.577759 101.872574
v  44.353542 1075.577759 157.652100
v  -16.687866 1010.928894 101.872574
v  -16.687866 1010.928894 157.652100
v  49.484402 948.133789 101.872574
v  49.484402 948.133789 157.652100
v  80.129860 980.427368 101.872574
v  80.129860 980.427368 157.652100
# 24 vertices

vn -0.725374 0.688355 0.000000
vn -0.688355 -0.725374 0.000000
vn 0.725374 -0.688355 0.000000
vn 0.730135 -0.683303 0.000000
vn 0.688355 0.725374 0.000000
vn -0.727102 0.686530 0.000000
vn 0.000000 0.000000 -1.000000
vn 0.000000 0.000000 1.000000
# 8 vertex normals

vt 0.497722 0.000500 2.786852
vt 0.924022 0.000500 2.786852
vt 0.924022 0.999501 2.786852
vt 0.497722 0.999501 2.786852
vt -1.786852 0.000500 0.924022
vt 2.994315 0.000500 0.924023
vt 2.994315 0.999501 0.924023
vt -1.786852 0.999501 0.924022
vt 0.075977 0.000500 -1.994315
vt 0.502277 0.000500 -1.994315
vt 0.502277 0.999501 -1.994315
vt 0.075977 0.999501 -1.994315
vt 2.994315 0.000500 0.497723
vt 9.964797 0.000500 0.497724
vt 9.964797 0.999501 0.497724
vt 2.994315 0.999501 0.497723
vt 0.497724 0.000500 -8.964797
vt 2.094005 0.000500 -8.964797
vt 2.094005 0.999501 -8.964797
vt 0.497724 0.999501 -8.964797
vt 9.964797 0.000500 2.094005
vt 13.011065 0.000500 2.094006
vt 13.011065 0.999501 2.094006
vt 9.964797 0.999501 2.094005
vt -1.094006 0.000500 -12.011065
vt 2.094000 0.000500 -11.988935
vt 2.094000 0.999501 -11.988935
vt -1.094006 0.999501 -12.011065
vt -11.988935 0.000500 -1.094000
vt 14.139059 0.000500 -1.094006
vt 14.139059 0.999501 -1.094006
vt -11.988935 0.999501 -1.094000
vt -1.094006 0.000500 14.139059
vt 2.093999 0.000500 14.131047
vt 2.093999 0.999501 14.131047
vt -1.094006 0.999501 14.139059
vt -13.131047 0.000500 2.093999
vt -9.860135 0.000500 2.094000
vt -9.860135 0.999501 2.094000
vt -13.131047 0.999501 2.093999
vt -1.094000 0.000500 10.860135
vt 0.502280 0.000500 10.860135
vt 0.502280 0.999501 10.860135
vt -1.094000 0.999501 10.860135
vt -9.860135 0.000500 0.497720
vt -1.786852 0.000500 0.497722
vt -1.786852 0.999501 0.497722
vt -9.860135 0.999501 0.497720
vt 9.964797 2.094005 0.000500
vt 9.964797 0.497724 0.000500
vt 12.988935 -1.094000 0.000500
vt 13.011065 2.094006 0.000500
vt 2.994315 0.497723 0.000500
vt -13.139059 -1.094006 0.000500
vt -13.131047 2.093999 0.000500
vt -9.860135 0.497720 0.000500
vt -9.860135 2.094000 0.000500
vt -1.786852 0.924022 0.000500
vt -1.786852 0.497722 0.000500
vt 2.994315 0.924023 0.000500
vt -8.964797 2.094005 0.999501
vt -12.011065 2.094006 0.999501
vt -11.988935 -1.094000 0.999501
vt -8.964797 0.497724 0.999501
vt 14.139059 -1.094006 0.999501
vt -1.994315 0.497723 0.999501
vt 14.131047 2.093999 0.999501
vt 10.860135 2.094000 0.999501
vt 10.860135 0.497720 0.999501
vt 2.786852 0.924022 0.999501
vt -1.994315 0.924023 0.999501
vt 2.786852 0.497722 0.999501
# 72 texture coords

g Rectangle01
usemtl ???????
s 1
f 19/34/14 20/35/14 21/36/14 22/37/14 
s 4
f 20/38/15 23/39/15 24/40/15 21/41/15 
s 2
f 23/42/16 25/43/16 26/44/16 24/45/16 
s 4
f 25/46/15 27/47/15 28/48/15 26/49/15 
s 2
f 27/50/14 29/51/14 30/52/14 28/53/14 
s 4
f 29/54/15 31/55/15 32/56/15 30/57/15 
s 2
f 31/58/17 33/59/17 34/60/17 32/61/17 
s 4
f 33/62/18 35/63/18 36/64/18 34/65/18 
s 2
f 35/66/19 37/67/19 38/68/19 36/69/19 
s 4
f 37/70/15 39/71/15 40/72/15 38/73/15 
s 2
f 39/74/16 41/75/16 42/76/16 40/77/16 
s 4
f 41/78/15 19/79/15 22/80/15 42/81/15 
s 16
f 29/82/20 27/83/20 33/84/20 31/85/20 
f 27/83/20 25/86/20 35/87/20 33/84/20 
f 37/88/20 35/87/20 41/89/20 39/90/20 
f 20/91/20 19/92/20 25/86/20 23/93/20 
f 19/92/20 41/89/20 35/87/20 25/86/20 
f 30/94/21 32/95/21 34/96/21 28/97/21 
f 28/97/21 34/96/21 36/98/21 26/99/21 
f 38/100/21 40/101/21 42/102/21 36/98/21 
f 21/103/21 24/104/21 26/99/21 22/105/21 
f 22/105/21 26/99/21 36/98/21 42/102/21 
# 22 polygons

#
# object Loft05
#

v  285.041321 772.372192 169.107330
v  285.036652 772.376587 171.836777
v  330.339447 729.385864 158.826889
v  329.799164 729.898499 156.320709
v  283.361603 770.602112 169.107330
v  328.119476 728.128479 156.320709
v  283.356903 770.606506 171.836777
v  328.659729 727.615784 158.826889
v  239.967453 815.145691 155.880188
v  239.418625 815.666443 158.382843
v  238.287750 813.375610 155.880188
v  237.738922 813.896423 158.382843
v  517.244446 509.873932 157.476242
v  485.600830 539.902649 172.243652
v  451.955170 571.831238 157.399536
v  -16.813551 1016.676086 157.476242
v  53.481056 949.969177 157.399536
v  17.833227 983.797546 172.243652
v  18.349218 984.117859 169.107330
v  18.344557 984.122253 171.836777
v  50.098927 953.988464 158.826889
v  49.558666 954.501160 156.320709
v  16.669483 982.347839 169.107330
v  47.878933 952.731140 156.320709
v  16.664820 982.352234 171.836777
v  48.419189 952.218445 158.826889
v  -13.998487 1014.814636 155.625275
v  -14.547315 1015.335571 158.127914
v  -15.678223 1013.044617 155.625275
v  -16.227051 1013.565430 158.127914
v  335.033234 724.848572 157.758102
v  285.281708 772.060974 172.525528
v  235.489304 819.312195 157.681412
v  485.782715 540.540039 169.107330
v  485.778076 540.544434 171.836777
v  516.852356 511.056061 157.477646
v  516.312134 511.568756 154.971466
v  484.103027 538.769958 169.107330
v  514.632446 509.798645 154.971466
v  484.098358 538.774353 171.836777
v  515.172668 509.285950 157.477646
v  453.852997 570.840271 154.962219
v  453.304169 571.361023 157.464859
v  452.173248 569.070190 154.962219
v  451.624420 569.591003 157.464859
# 45 vertices

vn 0.688355 0.725374 0.000000
vn 0.001958 -0.001858 -0.999996
vn -0.147191 0.139679 -0.979196
vn -0.688355 -0.725374 -0.000000
vn -0.001952 0.001852 0.999996
vn 0.147927 -0.140378 0.978985
vn 0.151023 -0.143315 -0.978086
vn -0.151747 0.144002 0.977873
vn 0.695319 -0.659833 -0.284873
vn -0.694337 0.658901 -0.289388
vn -0.688356 -0.725374 -0.000000
vn -0.688354 -0.725375 -0.000000
vn 0.001709 -0.001622 -0.999997
vn -0.206641 0.196095 -0.958565
vn -0.001710 0.001622 0.999997
vn 0.206641 -0.196095 0.958565
vn 0.209916 -0.199203 -0.957211
vn -0.209916 0.199203 0.957211
vn -0.004753 0.004511 -0.999979
vn -0.230951 0.219164 -0.947960
vn 0.004637 -0.004400 0.999980
vn 0.230531 -0.218766 0.948154
vn 0.221920 -0.210594 -0.952051
vn -0.221720 0.210405 0.952140
vn -0.221720 0.210404 0.952140
# 25 vertex normals

g Loft05
usemtl ???????
s 257
f 43//22 44//22 45//22 46//22 
s 516
f 47//23 43//23 46//24 48//24 
s 1026
f 49//25 47//25 48//25 50//25 
s 516
f 44//26 49//26 50//27 45//27 
s 264
f 51//22 52//22 44//22 43//22 
s 544
f 53//28 51//28 43//23 47//23 
s 1040
f 54//25 53//25 47//25 49//25 
s 544
f 52//29 54//29 49//26 44//26 
s 2147483648
f 48//30 46//30 45//30 50//30 
f 52//31 51//31 53//31 54//31 
s off
f 55//32 56//32 57//32 
f 58//33 59//33 60//33 
s 257
f 61//22 62//22 63//22 64//22 
s 516
f 65//34 61//34 64//35 66//35 
s 1026
f 67//25 65//25 66//25 68//25 
s 516
f 62//36 67//36 68//37 63//37 
s 264
f 69//22 70//22 62//22 61//22 
s 544
f 71//38 69//38 61//34 65//34 
s 1040
f 72//25 71//25 65//25 67//25 
s 544
f 70//39 72//39 67//36 62//36 
s 2147483648
f 66//30 64//30 63//30 68//30 
f 70//31 69//31 71//31 72//31 
f 73//25 74//25 75//25 
s 257
f 76//22 77//22 78//22 79//22 
s 516
f 80//40 76//40 79//41 81//41 
s 1026
f 82//25 80//25 81//25 83//25 
s 516
f 77//42 82//42 83//43 78//43 
s 264
f 84//22 85//22 77//22 76//22 
s 544
f 86//44 84//44 76//40 80//40 
s 1040
f 87//25 86//25 80//25 82//25 
s 544
f 85//45 87//46 82//42 77//42 
s 2147483648
f 81//30 79//30 78//30 83//30 
f 85//31 84//31 86//31 87//31 
# 30 polygons - 3 triangles

