# Blender 4.3.0
# www.blender.org
mtllib arsenal4.mtl
o arsenal.001
v 279.358337 56.488579 6.195419
v 369.786072 56.565269 -41.537277
v 369.006866 56.565277 47.751846
v 279.002502 56.488579 46.966385
v 325.943115 71.332703 -16.618500
v 325.384644 71.332703 47.371170
v -269.956604 56.488548 1.401581
v -366.437408 56.565231 -47.962311
v -318.895996 71.332672 -22.246048
v -270.312317 56.488556 42.172531
v -367.216614 56.565239 41.326828
v -319.454407 71.332672 41.743652
v -47.582420 56.770439 -44.810909
v 89.643471 56.847153 -43.613331
v 89.136765 56.847153 14.448586
v -48.089104 56.770439 13.250988
v 21.058689 71.614563 -44.211884
v 20.551994 71.614563 13.850019
v -46.405754 0.961586 -0.428080
v -46.509506 0.961590 11.460869
v -46.509510 56.741112 11.460867
v -46.405758 56.741112 -0.428082
v 86.831100 0.961594 12.624538
v 86.831093 56.741119 12.624531
v 86.934776 0.961594 0.735573
v 86.934769 56.741119 0.735565
v 281.332458 0.961605 2.432068
v 281.332458 56.741127 2.432068
v 280.944000 0.961605 46.950287
v 280.944000 56.741127 46.950287
v 365.900482 0.961613 47.691696
v 365.900482 56.741135 47.691696
v 366.059235 0.961605 -41.223053
v 366.059235 56.741127 -41.223053
v -362.616821 0.961567 -47.582169
v -362.616821 56.741089 -47.582169
v -363.169250 0.961575 41.329147
v -363.169250 56.741096 41.329147
v -271.947754 0.961578 42.125206
v -271.947754 56.741104 42.125206
v -271.559235 0.961575 -2.392975
v -271.559235 56.741096 -2.392975
v 20.196819 68.196350 10.019658
v 20.190407 70.925797 10.019629
v 82.642380 57.915909 10.564617
v 81.897629 55.409729 10.558170
v 20.175541 68.196350 12.459779
v 81.876328 55.409729 12.998226
v 20.169109 70.925797 12.459770
v 82.621109 57.915909 13.004738
v -41.939575 54.969200 9.477406
v -42.696114 57.471855 9.470852
v -41.960838 54.969200 11.917515
v -42.717419 57.471855 11.910914
v 369.042816 56.565277 43.636612
v 325.420593 71.332687 43.255875
v 279.038483 56.488564 42.851067
v -367.180725 56.565239 37.211624
v -270.276489 56.488541 38.057198
v -319.418579 71.332657 37.628433
v -319.259644 68.196335 37.042267
v -319.266052 70.925781 37.042252
v -275.491211 57.915894 37.424271
v -276.235962 55.409714 37.417763
v -319.280945 68.196335 39.482346
v -276.257294 55.409714 39.857841
v -319.287354 70.925781 39.482315
v -275.512512 57.915894 39.864365
v -363.852417 54.714272 36.653137
v -364.609070 57.216911 36.646439
v -363.873718 54.714272 39.093231
v -364.630310 57.216911 39.086624
v 89.169632 56.847122 10.681828
v 20.584877 71.614548 10.083325
v -48.056232 56.770424 9.484304
v 325.118927 68.196365 42.665665
v 325.112518 70.925812 42.665619
v 367.949860 56.566681 43.039474
v 367.205109 54.060505 43.032928
v 325.097656 68.196365 45.105774
v 367.183838 54.060505 45.473038
v 325.091248 70.925812 45.105743
v 367.928589 56.566681 45.479568
v 281.102295 54.051250 42.281494
v 280.345764 56.553886 42.274948
v 281.080994 54.051250 44.721634
v 280.324402 56.553886 44.715050
vn 0.0008 -1.0000 -0.0001
vn 0.0001 -1.0000 -0.0013
vn 0.0009 -1.0000 -0.0000
vn -0.3048 0.9524 -0.0027
vn 0.3206 0.9472 0.0028
vn -0.0007 -1.0000 -0.0002
vn -0.0002 -1.0000 -0.0012
vn -0.0047 0.8425 0.5386
vn 0.0044 0.8636 -0.5041
vn -0.0008 -1.0000 -0.0000
vn 0.2891 0.9573 0.0025
vn -0.2954 0.9554 -0.0026
vn 0.0006 -1.0000 -0.0000
vn -0.2114 0.9774 -0.0018
vn 0.2105 0.9776 0.0018
vn 0.0087 -0.0000 -1.0000
vn -1.0000 -0.0000 -0.0087
vn -0.0087 -0.0000 1.0000
vn 1.0000 -0.0000 0.0087
vn 1.0000 -0.0000 0.0018
vn -1.0000 -0.0000 -0.0062
vn -0.0000 -1.0000 -0.0000
vn -0.0000 1.0000 -0.0000
vn 0.0027 -1.0000 -0.0000
vn -0.2029 -0.9792 -0.0018
vn -0.0027 1.0000 -0.0000
vn 0.2039 0.9790 0.0018
vn 0.2082 -0.9781 0.0018
vn -0.2092 0.9779 -0.0018
vn 0.9585 -0.2849 0.0084
vn -0.9572 -0.2894 -0.0083
vn 0.0024 -1.0000 -0.0000
vn -0.2849 -0.9586 -0.0025
vn -0.0024 1.0000 -0.0000
vn 0.2849 0.9586 0.0025
vn 0.2894 -0.9572 0.0025
vn -0.2894 0.9572 -0.0025
vn -0.9572 -0.2894 -0.0084
vn -0.0066 -1.0000 -0.0001
vn -0.0065 -1.0000 -0.0001
vn -0.3184 -0.9480 -0.0028
vn 0.0064 1.0000 0.0001
vn 0.3178 0.9482 0.0028
vn 0.3059 -0.9521 0.0027
vn -0.3057 0.9521 -0.0027
vn 0.9585 -0.2849 0.0083
vt 0.456659 0.877371
vt 0.999498 0.999501
vt 0.000499 0.999501
vt 0.000500 0.877371
vt 0.283561 0.940308
vt 0.543341 0.877371
vt 0.999500 0.877371
vt 0.999500 0.940308
vt 0.000502 0.999501
vt 0.999501 0.999501
vt 0.456661 0.131991
vt 0.999501 0.000499
vt 0.283559 0.065309
vt 0.543339 0.131991
vt 0.000500 0.000499
vt 0.000501 0.131991
vt 0.000502 0.000499
vt 0.999499 0.065309
vt 0.999499 0.131991
vt 0.999498 0.000499
vt 1.320080 0.552048
vt -0.320080 0.552048
vt -0.320080 0.447952
vt 1.320080 0.447952
vt 0.500337 0.552048
vt 0.500336 0.447952
vt -0.320080 0.394652
vt 1.320080 0.393552
vt 0.499663 0.606448
vt 0.497722 0.000500
vt 0.924022 0.000500
vt 0.924022 0.999501
vt 0.497722 0.999501
vt -1.786852 0.000500
vt 2.994315 0.000500
vt 2.994315 0.999501
vt -1.786852 0.999501
vt 0.075977 0.000500
vt 0.502277 0.000500
vt 0.502277 0.999501
vt 0.075977 0.999501
vt 9.964797 0.000500
vt 9.964797 0.999501
vt 0.497724 0.000500
vt 2.094005 0.000500
vt 2.094005 0.999501
vt 0.497724 0.999501
vt 13.011065 0.000500
vt 13.011065 0.999501
vt -1.094006 0.000500
vt 2.094000 0.000500
vt 2.094000 0.999501
vt -1.094006 0.999501
vt -11.988935 0.000500
vt 14.139059 0.000500
vt 14.139059 0.999501
vt -11.988935 0.999501
vt 2.093999 0.000500
vt 2.093999 0.999501
vt -13.131047 0.000500
vt -9.860135 0.000500
vt -9.860135 0.999501
vt -13.131047 0.999501
vt -1.094000 0.000500
vt 0.502280 0.000500
vt 0.502280 0.999501
vt -1.094000 0.999501
vt 9.964797 2.094005
vt 9.964797 0.497724
vt 12.988935 -1.094000
vt 13.011065 2.094006
vt 2.994315 0.497723
vt -13.139059 -1.094006
vt -13.131047 2.093999
vt -9.860135 0.497720
vt -9.860135 2.094000
vt -1.786852 0.924022
vt -1.786852 0.497722
vt 2.994315 0.924023
vt -8.964797 2.094005
vt -12.011065 2.094006
vt -11.988935 -1.094000
vt -8.964797 0.497724
vt 14.139059 -1.094006
vt -1.994315 0.497723
vt 14.131047 2.093999
vt 10.860135 2.094000
vt 10.860135 0.497720
vt 2.786852 0.924022
vt -1.994315 0.924023
vt 2.786852 0.497722
vt 0.000000 0.000000
s 1
usemtl ?????_2
f 1/1/1 2/2/2 3/3/3 4/4/3
f 5/5/4 1/6/4 4/7/4 6/8/4
f 2/9/5 5/5/5 6/8/5 3/10/5
f 7/11/6 8/12/7 2/2/2 1/1/1
f 9/13/8 7/14/8 1/6/8 5/5/8
f 8/15/9 9/13/9 5/5/9 2/9/9
f 10/16/10 11/17/10 8/12/7 7/11/6
f 12/18/11 10/19/11 7/14/11 9/13/11
f 11/20/12 12/18/12 9/13/12 8/15/12
f 13/21/13 14/22/13 15/23/13 16/24/13
f 17/25/14 13/22/14 16/23/14 18/26/14
f 14/21/15 17/25/15 18/26/15 15/24/15
f 14/27/16 13/28/16 17/29/16
usemtl ???????
f 19/30/17 20/31/17 21/32/17 22/33/17
f 20/34/18 23/35/18 24/36/18 21/37/18
f 23/38/19 25/39/19 26/40/19 24/41/19
f 25/35/18 27/42/18 28/43/18 26/36/18
f 27/44/17 29/45/17 30/46/17 28/47/17
f 29/42/18 31/48/18 32/49/18 30/43/18
f 31/50/20 33/51/20 34/52/20 32/53/20
f 33/54/16 35/55/16 36/56/16 34/57/16
f 35/50/21 37/58/21 38/59/21 36/53/21
f 37/60/18 39/61/18 40/62/18 38/63/18
f 39/64/19 41/65/19 42/66/19 40/67/19
f 41/61/18 19/34/18 22/37/18 42/62/18
f 29/68/22 27/69/22 33/70/22 31/71/22
f 27/69/22 25/72/22 35/73/22 33/70/22
f 37/74/22 35/73/22 41/75/22 39/76/22
f 20/77/22 19/78/22 25/72/22 23/79/22
f 19/78/22 41/75/22 35/73/22 25/72/22
f 30/80/23 32/81/23 34/82/23 28/83/23
f 28/83/23 34/82/23 36/84/23 26/85/23
f 38/86/23 40/87/23 42/88/23 36/84/23
f 21/89/23 24/90/23 26/85/23 22/91/23
f 22/91/23 26/85/23 36/84/23 42/88/23
f 43/92/16 44/92/16 45/92/16 46/92/16
f 47/92/24 43/92/24 46/92/25 48/92/25
f 49/92/18 47/92/18 48/92/18 50/92/18
f 44/92/26 49/92/26 50/92/27 45/92/27
f 51/92/16 52/92/16 44/92/16 43/92/16
f 53/92/28 51/92/28 43/92/24 47/92/24
f 54/92/18 53/92/18 47/92/18 49/92/18
f 52/92/29 54/92/29 49/92/26 44/92/26
f 48/92/30 46/92/30 45/92/30 50/92/30
f 52/92/31 51/92/31 53/92/31 54/92/31
f 55/92/18 56/92/18 57/92/18
f 58/92/18 59/92/18 60/92/18
f 61/92/16 62/92/16 63/92/16 64/92/16
f 65/92/32 61/92/32 64/92/33 66/92/33
f 67/92/18 65/92/18 66/92/18 68/92/18
f 62/92/34 67/92/34 68/92/35 63/92/35
f 69/92/16 70/92/16 62/92/16 61/92/16
f 71/92/36 69/92/36 61/92/32 65/92/32
f 72/92/18 71/92/18 65/92/18 67/92/18
f 70/92/37 72/92/37 67/92/34 62/92/34
f 66/92/30 64/92/30 63/92/30 68/92/30
f 70/92/38 69/92/38 71/92/38 72/92/38
f 73/92/18 74/92/18 75/92/18
f 76/92/16 77/92/16 78/92/16 79/92/16
f 80/92/39 76/92/40 79/92/41 81/92/41
f 82/92/18 80/92/18 81/92/18 83/92/18
f 77/92/42 82/92/42 83/92/43 78/92/43
f 84/92/16 85/92/16 77/92/16 76/92/16
f 86/92/44 84/92/44 76/92/40 80/92/39
f 87/92/18 86/92/18 80/92/18 82/92/18
f 85/92/45 87/92/45 82/92/42 77/92/42
f 81/92/46 79/92/46 78/92/46 83/92/46
f 85/92/38 84/92/38 86/92/38 87/92/38
