# Blender 4.3.0
# www.blender.org
mtllib arsenal2.mtl
o arsenal.001
v 200.084503 56.488564 195.052979
v 298.772766 56.565254 221.815063
v 237.307861 56.565254 286.585571
v 172.018524 56.488564 224.628296
v 249.713501 71.332680 210.138672
v 205.664215 71.332680 256.556885
v -198.389618 56.488564 -183.084900
v -235.285126 56.565254 -284.987122
v -218.053986 71.332680 -233.756287
v -226.455505 56.488564 -153.509521
v -296.750061 56.565254 -220.216614
v -262.103271 71.332680 -187.338013
v -4.238617 56.770439 -65.223755
v 95.305298 56.847145 29.239929
v 55.336578 56.847145 71.358154
v -44.207306 56.770439 -23.105530
v 45.553772 71.614555 -17.972534
v 5.585083 71.614555 24.145691
v -33.647079 0.961586 -31.961731
v -41.831207 0.961586 -23.337463
v -41.831207 56.741112 -23.337463
v -33.647079 56.741112 -31.961731
v 54.894318 0.961586 68.451660
v 54.894318 56.741112 68.451660
v 63.078400 0.961586 59.827332
v 63.078400 56.741112 59.827332
v 204.094879 0.961586 193.646973
v 204.094879 56.741112 193.646973
v 173.449432 0.961586 225.940613
v 173.449432 56.741112 225.940613
v 235.077026 0.961586 284.423035
v 235.077026 56.741112 284.423035
v 295.832825 0.961586 219.503174
v 295.832825 56.741112 219.503174
v -232.750153 0.961586 -282.103455
v -232.750153 56.741112 -282.103455
v -293.791565 0.961586 -217.454590
v -293.791565 56.741112 -217.454590
v -227.619293 0.961586 -154.659485
v -227.619293 56.741112 -154.659485
v -196.973846 0.961586 -186.953064
v -196.973846 56.741112 -186.953064
v 7.937622 68.196342 21.102112
v 7.932953 70.925789 21.097717
v 53.235748 57.915901 64.088440
v 52.695465 55.409721 63.575806
v 6.257904 68.196342 22.872192
v 51.015778 55.409721 65.345825
v 6.253204 70.925789 22.867798
v 51.556030 57.915901 65.858521
v -37.136246 54.969200 -21.671387
v -37.685074 57.471855 -22.192139
v -38.815948 54.969200 -19.901306
v -39.364777 57.471855 -20.422119
v 240.140747 56.565254 283.600372
v 208.497131 71.332664 253.571655
v 174.851471 56.488548 221.643066
v -293.917236 56.565254 -223.201782
v -223.622650 56.488548 -156.494873
v -259.270477 71.332664 -190.323242
v -258.754486 68.196342 -190.643555
v -258.759155 70.925789 -190.647949
v -227.004776 57.915901 -160.514160
v -227.545029 55.409721 -161.026855
v -260.434204 68.196342 -188.873535
v -229.224762 55.409721 -159.256836
v -260.438873 70.925789 -188.877930
v -228.684509 57.915901 -158.744141
v -291.102173 54.714287 -221.340332
v -291.651001 57.216927 -221.861267
v -292.781921 54.714287 -219.570312
v -293.330750 57.216927 -220.091125
v 57.929535 56.847115 68.625732
v 8.178009 71.614540 21.413330
v -41.614395 56.770424 -25.837891
v 208.679016 68.196342 252.934265
v 208.674377 70.925789 252.929871
v 239.748657 56.566658 282.418243
v 239.208435 54.060478 281.905548
v 206.999329 68.196342 254.704346
v 237.528748 54.060478 283.675659
v 206.994659 70.925789 254.699951
v 238.068970 56.566658 284.188354
v 176.749298 54.051231 222.634033
v 176.200470 56.553871 222.113281
v 175.069550 54.051231 224.404114
v 174.520721 56.553871 223.883301
vn 0.0006 -1.0000 0.0005
vn 0.0010 -1.0000 -0.0009
vn 0.0006 -1.0000 0.0006
vn -0.2211 0.9524 -0.2098
vn 0.2326 0.9472 0.2207
vn -0.0004 -1.0000 -0.0006
vn 0.0007 -1.0000 -0.0010
vn -0.3708 0.8425 0.3907
vn 0.3470 0.8636 -0.3657
vn -0.0006 -1.0000 -0.0005
vn 0.2097 0.9573 0.1990
vn -0.2143 0.9554 -0.2033
vn 0.0004 -1.0000 0.0004
vn -0.1533 0.9774 -0.1455
vn 0.1527 0.9776 0.1449
vn 0.6884 -0.0000 -0.7254
vn -0.7254 -0.0000 -0.6884
vn -0.6884 -0.0000 0.7254
vn 0.7254 -0.0000 0.6884
vn 0.7301 -0.0000 0.6833
vn -0.7271 -0.0000 -0.6865
vn -0.0000 -1.0000 -0.0000
vn -0.0000 1.0000 -0.0000
vn 0.0020 -1.0000 0.0019
vn -0.1472 -0.9792 -0.1397
vn -0.0020 1.0000 -0.0019
vn 0.1479 0.9790 0.1404
vn 0.1510 -0.9781 0.1433
vn -0.1517 0.9779 -0.1440
vn 0.6953 -0.2849 0.6598
vn -0.6943 -0.2894 -0.6589
vn 0.0017 -1.0000 0.0016
vn -0.2066 -0.9586 -0.1961
vn -0.0017 1.0000 -0.0016
vn 0.2066 0.9586 0.1961
vn 0.2099 -0.9572 0.1992
vn -0.2099 0.9572 -0.1992
vn -0.0048 -1.0000 -0.0045
vn -0.2310 -0.9480 -0.2192
vn 0.0046 1.0000 0.0044
vn 0.2305 0.9482 0.2188
vn 0.2219 -0.9521 0.2106
vn -0.2217 0.9521 -0.2104
vt 0.456659 0.877371
vt 0.999498 0.999501
vt 0.000499 0.999501
vt 0.000500 0.877371
vt 0.283561 0.940308
vt 0.543341 0.877371
vt 0.999500 0.877371
vt 0.999500 0.940308
vt 0.000502 0.999501
vt 0.999501 0.999501
vt 0.456661 0.131991
vt 0.999501 0.000499
vt 0.283559 0.065309
vt 0.543339 0.131991
vt 0.000500 0.000499
vt 0.000501 0.131991
vt 0.000502 0.000499
vt 0.999499 0.065309
vt 0.999499 0.131991
vt 0.999498 0.000499
vt 1.320080 0.552048
vt -0.320080 0.552048
vt -0.320080 0.447952
vt 1.320080 0.447952
vt 0.500337 0.552048
vt 0.500336 0.447952
vt -0.320080 0.394652
vt 1.320080 0.393552
vt 0.499663 0.606448
vt 0.497722 0.000500
vt 0.924022 0.000500
vt 0.924022 0.999501
vt 0.497722 0.999501
vt -1.786852 0.000500
vt 2.994315 0.000500
vt 2.994315 0.999501
vt -1.786852 0.999501
vt 0.075977 0.000500
vt 0.502277 0.000500
vt 0.502277 0.999501
vt 0.075977 0.999501
vt 9.964797 0.000500
vt 9.964797 0.999501
vt 0.497724 0.000500
vt 2.094005 0.000500
vt 2.094005 0.999501
vt 0.497724 0.999501
vt 13.011065 0.000500
vt 13.011065 0.999501
vt -1.094006 0.000500
vt 2.094000 0.000500
vt 2.094000 0.999501
vt -1.094006 0.999501
vt -11.988935 0.000500
vt 14.139059 0.000500
vt 14.139059 0.999501
vt -11.988935 0.999501
vt 2.093999 0.000500
vt 2.093999 0.999501
vt -13.131047 0.000500
vt -9.860135 0.000500
vt -9.860135 0.999501
vt -13.131047 0.999501
vt -1.094000 0.000500
vt 0.502280 0.000500
vt 0.502280 0.999501
vt -1.094000 0.999501
vt 9.964797 2.094005
vt 9.964797 0.497724
vt 12.988935 -1.094000
vt 13.011065 2.094006
vt 2.994315 0.497723
vt -13.139059 -1.094006
vt -13.131047 2.093999
vt -9.860135 0.497720
vt -9.860135 2.094000
vt -1.786852 0.924022
vt -1.786852 0.497722
vt 2.994315 0.924023
vt -8.964797 2.094005
vt -12.011065 2.094006
vt -11.988935 -1.094000
vt -8.964797 0.497724
vt 14.139059 -1.094006
vt -1.994315 0.497723
vt 14.131047 2.093999
vt 10.860135 2.094000
vt 10.860135 0.497720
vt 2.786852 0.924022
vt -1.994315 0.924023
vt 2.786852 0.497722
vt 0.000000 0.000000
s 1
usemtl ?????_2
f 1/1/1 2/2/2 3/3/3 4/4/3
f 5/5/4 1/6/4 4/7/4 6/8/4
f 2/9/5 5/5/5 6/8/5 3/10/5
f 7/11/6 8/12/7 2/2/2 1/1/1
f 9/13/8 7/14/8 1/6/8 5/5/8
f 8/15/9 9/13/9 5/5/9 2/9/9
f 10/16/10 11/17/10 8/12/7 7/11/6
f 12/18/11 10/19/11 7/14/11 9/13/11
f 11/20/12 12/18/12 9/13/12 8/15/12
f 13/21/13 14/22/13 15/23/13 16/24/13
f 17/25/14 13/22/14 16/23/14 18/26/14
f 14/21/15 17/25/15 18/26/15 15/24/15
f 14/27/16 13/28/16 17/29/16
usemtl ???????
f 19/30/17 20/31/17 21/32/17 22/33/17
f 20/34/18 23/35/18 24/36/18 21/37/18
f 23/38/19 25/39/19 26/40/19 24/41/19
f 25/35/18 27/42/18 28/43/18 26/36/18
f 27/44/17 29/45/17 30/46/17 28/47/17
f 29/42/18 31/48/18 32/49/18 30/43/18
f 31/50/20 33/51/20 34/52/20 32/53/20
f 33/54/16 35/55/16 36/56/16 34/57/16
f 35/50/21 37/58/21 38/59/21 36/53/21
f 37/60/18 39/61/18 40/62/18 38/63/18
f 39/64/19 41/65/19 42/66/19 40/67/19
f 41/61/18 19/34/18 22/37/18 42/62/18
f 29/68/22 27/69/22 33/70/22 31/71/22
f 27/69/22 25/72/22 35/73/22 33/70/22
f 37/74/22 35/73/22 41/75/22 39/76/22
f 20/77/22 19/78/22 25/72/22 23/79/22
f 19/78/22 41/75/22 35/73/22 25/72/22
f 30/80/23 32/81/23 34/82/23 28/83/23
f 28/83/23 34/82/23 36/84/23 26/85/23
f 38/86/23 40/87/23 42/88/23 36/84/23
f 21/89/23 24/90/23 26/85/23 22/91/23
f 22/91/23 26/85/23 36/84/23 42/88/23
f 43/92/16 44/92/16 45/92/16 46/92/16
f 47/92/24 43/92/24 46/92/25 48/92/25
f 49/92/18 47/92/18 48/92/18 50/92/18
f 44/92/26 49/92/26 50/92/27 45/92/27
f 51/92/16 52/92/16 44/92/16 43/92/16
f 53/92/28 51/92/28 43/92/24 47/92/24
f 54/92/18 53/92/18 47/92/18 49/92/18
f 52/92/29 54/92/29 49/92/26 44/92/26
f 48/92/30 46/92/30 45/92/30 50/92/30
f 52/92/31 51/92/31 53/92/31 54/92/31
f 55/92/18 56/92/18 57/92/18
f 58/92/18 59/92/18 60/92/18
f 61/92/16 62/92/16 63/92/16 64/92/16
f 65/92/32 61/92/32 64/92/33 66/92/33
f 67/92/18 65/92/18 66/92/18 68/92/18
f 62/92/34 67/92/34 68/92/35 63/92/35
f 69/92/16 70/92/16 62/92/16 61/92/16
f 71/92/36 69/92/36 61/92/32 65/92/32
f 72/92/18 71/92/18 65/92/18 67/92/18
f 70/92/37 72/92/37 67/92/34 62/92/34
f 66/92/30 64/92/30 63/92/30 68/92/30
f 70/92/31 69/92/31 71/92/31 72/92/31
f 73/92/18 74/92/18 75/92/18
f 76/92/16 77/92/16 78/92/16 79/92/16
f 80/92/38 76/92/38 79/92/39 81/92/39
f 82/92/18 80/92/18 81/92/18 83/92/18
f 77/92/40 82/92/40 83/92/41 78/92/41
f 84/92/16 85/92/16 77/92/16 76/92/16
f 86/92/42 84/92/42 76/92/38 80/92/38
f 87/92/18 86/92/18 80/92/18 82/92/18
f 85/92/43 87/92/43 82/92/40 77/92/40
f 81/92/30 79/92/30 78/92/30 83/92/30
f 85/92/31 84/92/31 86/92/31 87/92/31
