# Blender 4.3.0
# www.blender.org
mtllib hoz1.mtl
o hozkorpus
v 579.691833 -957.281372 142.052780
v 579.691833 -879.074524 142.052765
v 639.424500 -879.074524 142.052765
v 639.424500 -957.281372 142.052780
v 579.691833 -957.281372 143.204330
v 639.424500 -957.281372 143.204330
v 639.424500 -879.074524 143.204315
v 579.691833 -879.074524 143.204315
v 580.073608 -956.762512 111.455414
v 580.073608 -879.901184 111.455414
v 638.426941 -879.901184 111.455414
v 638.426941 -956.762512 111.455414
v 580.073608 -956.762512 142.743439
v 638.426941 -956.762512 142.743439
v 638.426941 -879.901184 142.743423
v 580.073608 -879.901184 142.743423
vn -0.0000 -0.0000 -1.0000
vn -0.0000 -0.0000 1.0000
vn -0.0000 -1.0000 -0.0000
vn 1.0000 -0.0000 -0.0000
vn -0.0000 1.0000 -0.0000
vn -1.0000 -0.0000 -0.0000
vt 1.000000 0.000000
vt 1.000000 1.000000
vt 0.000000 1.000000
vt 0.000000 0.000000
vt 7.996004 0.000500
vt 7.996001 0.999500
vt 0.003996 0.999500
vt 0.003999 0.000500
vt 0.003996 0.000500
vt 7.996001 0.000500
vt 7.996004 0.999500
vt 0.003999 0.999500
vt 0.003996 0.000499
vt 7.996001 0.000499
vt 7.996001 0.999501
vt 0.003996 0.999501
vt 7.996002 0.000499
vt 7.996002 0.999501
s 1
usemtl Material__13
f 1/1/1 2/2/1 3/3/1 4/4/1
f 5/4/2 6/1/2 7/2/2 8/3/2
f 1/4/3 4/1/3 6/2/3 5/3/3
f 4/4/4 3/1/4 7/2/4 6/3/4
f 3/4/5 2/1/5 8/2/5 7/3/5
f 2/4/6 1/1/6 5/2/6 8/3/6
usemtl Material__15
f 9/5/1 10/6/1 11/7/1 12/8/1
f 13/9/2 14/10/2 15/11/2 16/12/2
f 9/13/3 12/14/3 14/15/3 13/16/3
f 12/13/4 11/17/4 15/18/4 14/16/4
f 11/13/5 10/14/5 16/15/5 15/16/5
f 10/13/6 9/17/6 13/18/6 16/16/6
o hozkorpus.001
v -30.084715 30.597359 36.016479
v -30.084715 30.597359 -42.190369
v 29.647951 30.597359 -42.190369
v 29.647951 30.597359 36.016479
v -30.084715 31.748909 36.016479
v 29.647951 31.748909 36.016479
v 29.647951 31.748909 -42.190369
v -30.084715 31.748909 -42.190369
v -29.702940 0.000000 35.497620
v -29.702940 0.000000 -41.363708
v 28.650393 0.000000 -41.363708
v 28.650393 0.000000 35.497620
v -29.702940 31.288017 35.497620
v 28.650393 31.288017 35.497620
v 28.650393 31.288017 -41.363708
v -29.702940 31.288017 -41.363708
vn -0.0000 -1.0000 -0.0000
vn -0.0000 1.0000 -0.0000
vn -0.0000 -0.0000 1.0000
vn 1.0000 -0.0000 -0.0000
vn -0.0000 -0.0000 -1.0000
vn -1.0000 -0.0000 -0.0000
vt 1.000000 0.000000
vt 1.000000 1.000000
vt 0.000000 1.000000
vt 0.000000 0.000000
vt 7.996004 0.000500
vt 7.996001 0.999500
vt 0.003996 0.999500
vt 0.003999 0.000500
vt 0.003996 0.000500
vt 7.996001 0.000500
vt 7.996004 0.999500
vt 0.003999 0.999500
vt 0.003996 0.000499
vt 7.996001 0.000499
vt 7.996001 0.999501
vt 0.003996 0.999501
vt 7.996002 0.000499
vt 7.996002 0.999501
s 1
usemtl Material__13
f 17/19/7 18/20/7 19/21/7 20/22/7
f 21/22/8 22/19/8 23/20/8 24/21/8
f 17/22/9 20/19/9 22/20/9 21/21/9
f 20/22/10 19/19/10 23/20/10 22/21/10
f 19/22/11 18/19/11 24/20/11 23/21/11
f 18/22/12 17/19/12 21/20/12 24/21/12
usemtl Material__15
f 25/23/7 26/24/7 27/25/7 28/26/7
f 29/27/8 30/28/8 31/29/8 32/30/8
f 25/31/9 28/32/9 30/33/9 29/34/9
f 28/31/10 27/35/10 31/36/10 30/34/10
f 27/31/11 26/32/11 32/33/11 31/34/11
f 26/31/12 25/35/12 29/36/12 32/34/12
