# 3ds Max Wavefront OBJ Exporter v0.97b - (c)2007 guruware
# File Created: 20.05.2017 14:56:43

mtllib zelhouse.mtl

#
# object Box03
#

v  415.336761 -1030.816528 149.912399
v  428.597809 -1030.816528 149.912399
v  428.597809 -1094.574341 149.912399
v  415.336761 -1094.574341 149.912399
v  415.336761 -1030.816528 150.531921
v  415.336761 -1094.574341 150.531921
v  428.597809 -1094.574341 150.531921
v  428.597809 -1030.816528 150.531921
v  490.068207 -1030.816528 149.912399
v  503.329254 -1030.816528 149.912399
v  503.329254 -1094.574341 149.912399
v  490.068207 -1094.574341 149.912399
v  490.068207 -1030.816528 150.531921
v  490.068207 -1094.574341 150.531921
v  503.329254 -1094.574341 150.531921
v  503.329254 -1030.816528 150.531921
v  547.256470 -1055.472290 149.912399
v  547.256470 -1068.733276 149.912399
v  375.587006 -1068.733276 149.912399
v  375.587006 -1055.472290 149.912399
v  547.256470 -1055.472290 150.531921
v  375.587006 -1055.472290 150.531921
v  375.587006 -1068.733276 150.531921
v  547.256470 -1068.733276 150.531921
v  413.425507 -1062.199341 155.380737
v  369.202240 -1099.904663 143.491074
v  553.641296 -1099.904663 143.491074
v  504.969879 -1062.199341 155.380722
v  369.202240 -1025.204224 143.278763
v  553.641296 -1025.204224 143.278748
# 30 vertices

vn 0.000000 -0.000000 -1.000000
vn -0.000000 0.000000 1.000000
vn -1.000000 -0.000000 -0.000000
vn 0.000000 -1.000000 0.000000
vn 1.000000 0.000000 0.000000
vn -0.000000 1.000000 -0.000000
vn 0.000000 -0.240975 0.970531
vn 0.000000 0.249436 0.968391
vn -0.000000 -0.002238 -0.999997
vn 0.239323 0.002173 0.970938
vn -0.261815 0.002160 0.965116
# 11 vertex normals

vt 1.000000 0.000000 0.000000
vt 1.000000 1.000000 0.000000
vt 0.000000 1.000000 0.000000
vt 0.000000 0.000000 0.000000
vt 0.611230 0.632832 0.999446
vt 0.313082 0.755222 0.018077
vt 0.313082 0.244778 0.018077
vt 0.611230 0.379478 0.999446
vt 0.903761 0.755222 0.000554
vt 0.903761 0.244778 0.000554
vt 0.686918 0.755222 0.018077
vt 0.096239 0.755222 0.000554
vt 0.096239 0.244778 0.000554
vt 0.686918 0.244778 0.018077
# 14 texture coords

g Box03
usemtl Material__49
s 4
f 1/1/1 2/2/1 3/3/1 4/4/1 
s 2
f 5/4/2 6/1/2 7/2/2 8/3/2 
s 8
f 1/4/3 4/1/3 6/2/3 5/3/3 
s 16
f 4/4/4 3/1/4 7/2/4 6/3/4 
s 32
f 3/4/5 2/1/5 8/2/5 7/3/5 
s 64
f 2/4/6 1/1/6 5/2/6 8/3/6 
s 4
f 9/1/1 10/2/1 11/3/1 12/4/1 
s 2
f 13/4/2 14/1/2 15/2/2 16/3/2 
s 8
f 9/4/3 12/1/3 14/2/3 13/3/3 
s 16
f 12/4/4 11/1/4 15/2/4 14/3/4 
s 32
f 11/4/5 10/1/5 16/2/5 15/3/5 
s 64
f 10/4/6 9/1/6 13/2/6 16/3/6 
s 4
f 17/1/1 18/2/1 19/3/1 20/4/1 
s 2
f 21/4/2 22/1/2 23/2/2 24/3/2 
s 8
f 17/4/6 20/1/6 22/2/6 21/3/6 
s 16
f 20/4/3 19/1/3 23/2/3 22/3/3 
s 32
f 19/4/4 18/1/4 24/2/4 23/3/4 
s 64
f 18/4/5 17/1/5 21/2/5 24/3/5 
s 1
f 25/5/7 26/6/7 27/7/7 28/8/7 
s 4
f 29/9/8 25/5/8 28/8/8 30/10/8 
s 2
f 26/11/9 29/12/9 30/13/9 27/14/9 
s 16
f 30/10/10 28/8/10 27/7/10 
f 29/9/11 26/6/11 25/5/11 
# 21 polygons - 2 triangles

#
# object Box01
#

v  551.747192 -1098.671509 109.311172
v  371.082245 -1098.671509 109.311172
v  371.082245 -1026.523682 109.311172
v  551.747192 -1026.523682 109.311172
v  551.747192 -1098.671509 143.446472
v  551.747192 -1026.523682 143.446472
v  371.082245 -1026.523682 143.446472
v  371.082245 -1098.671509 143.446472
v  416.198975 -1031.754150 145.261673
v  427.735596 -1031.754150 145.261673
v  427.735596 -1093.636719 145.261673
v  416.198975 -1093.636719 145.261673
v  416.198975 -1031.754150 150.027206
v  416.198975 -1093.636719 150.027206
v  427.735596 -1093.636719 150.027206
v  427.735596 -1031.754150 150.027206
v  490.930420 -1031.754150 145.261673
v  502.467041 -1031.754150 145.261673
v  502.467041 -1093.636719 145.261673
v  490.930420 -1093.636719 145.261673
v  490.930420 -1031.754150 150.027206
v  490.930420 -1093.636719 150.027206
v  502.467041 -1093.636719 150.027206
v  502.467041 -1031.754150 150.027206
v  544.732117 -1056.334473 145.261673
v  544.732117 -1067.871094 145.261673
v  378.111420 -1067.871094 145.261673
v  378.111420 -1056.334473 145.261673
v  544.732117 -1056.334473 150.027206
v  378.111420 -1056.334473 150.027206
v  378.111420 -1067.871094 150.027206
v  544.732117 -1067.871094 150.027206
# 32 vertices

vn 0.000000 -0.000000 -1.000000
vn 0.000000 0.000000 1.000000
vn -1.000000 0.000000 0.000000
vn 0.000000 -1.000000 -0.000000
vn 0.000000 -1.000000 0.000000
vn 1.000000 0.000000 0.000000
vn 0.000000 1.000000 0.000000
vn 0.000000 0.000000 -1.000000
# 8 vertex normals

vt 2.057961 1.275677 0.000500
vt 2.057964 -0.390989 0.000500
vt 7.974199 -0.390989 0.000500
vt 7.974195 1.275677 0.000500
vt 5.942039 1.275677 0.999501
vt 0.025805 1.275677 0.999501
vt 0.025801 -0.390989 0.999501
vt 5.942036 -0.390989 0.999501
vt 5.942036 0.999501 -0.390989
vt 0.025801 0.999501 -0.390989
vt 0.025801 0.000500 -0.390989
vt 5.942036 0.000500 -0.390989
vt 10.205418 0.999501 0.742755
vt -3.127916 0.999501 0.742754
vt -3.127916 0.000500 0.742754
vt 10.205418 0.000500 0.742755
vt 7.974195 0.999501 1.275677
vt 2.057961 0.999501 1.275677
vt 2.057961 0.000500 1.275677
vt 7.974195 0.000500 1.275677
vt 11.127914 0.999501 0.003225
vt -2.205419 0.999501 0.003226
vt -2.205419 0.000500 0.003226
vt 11.127914 0.000500 0.003225
vt -428.158966 -62.850815 0.000000
vt -428.158966 62.850815 0.000000
vt 428.158966 62.850815 0.000000
vt 428.158966 -62.850815 0.000000
vt -428.158966 -62.850815 51.924530
vt 428.158966 -62.850815 51.924530
vt 428.158966 62.850815 51.924530
vt -428.158966 62.850815 51.924530
# 32 texture coords

g Box01
usemtl ???????_???
s 2
f 31/15/12 32/16/12 33/17/12 34/18/12 
s 4
f 35/19/13 36/20/13 37/21/13 38/22/13 
s 8
f 38/23/14 37/24/14 33/25/14 32/26/14 
s 16
f 35/27/15 38/28/16 32/29/15 31/30/15 
s 32
f 36/31/17 35/32/17 31/33/17 34/34/17 
s 64
f 37/35/18 36/36/18 34/37/18 33/38/18 
s 4
f 39/39/19 40/40/19 41/41/19 42/42/19 
s 2
f 43/43/13 44/44/13 45/45/13 46/46/13 
s 8
f 39/39/14 42/42/14 44/44/14 43/43/14 
s 16
f 42/42/16 41/41/16 45/45/16 44/44/16 
s 32
f 41/41/17 40/40/17 46/46/17 45/45/17 
s 64
f 40/40/18 39/39/18 43/43/18 46/46/18 
s 4
f 47/39/19 48/40/19 49/41/19 50/42/19 
s 2
f 51/43/13 52/44/13 53/45/13 54/46/13 
s 8
f 47/39/14 50/42/14 52/44/14 51/43/14 
s 16
f 50/42/16 49/41/16 53/45/16 52/44/16 
s 32
f 49/41/17 48/40/17 54/46/17 53/45/17 
s 64
f 48/40/18 47/39/18 51/43/18 54/46/18 
s 4
f 55/39/19 56/40/19 57/41/19 58/42/19 
s 2
f 59/43/13 60/44/13 61/45/13 62/46/13 
s 8
f 55/39/18 58/42/18 60/44/18 59/43/18 
s 16
f 58/42/14 57/41/14 61/45/14 60/44/14 
s 32
f 57/41/16 56/40/16 62/46/16 61/45/16 
s 64
f 56/40/17 55/39/17 59/43/17 62/46/17 
# 24 polygons

